
      <svg data-logo="logo" xmlns="http://www.w3.org/2000/svg" viewBox="0 0 191 42">
        <g id="logogram" transform="translate(0, 1) rotate(0) "><path d="M15 0L20.4545 5.33333L0 25.3333V14.6667L15 0Z" fill="#06D1D4"/><path d="M2.90827 28.177L15 40L30 25.3334V14.6667L20.4545 5.33337L0 25.3334L0.0041688 25.3375L20.4545 5.33337V20.6667L11.25 29.6667V20.1324L2.90827 28.177Z" fill="#3628A0"/></g>
        <g id="logotype" transform="translate(36, 1.5)"><path fill="#212121" d="M23.35 33L23.35 33L9.61 33Q8.73 33 8.73 32.12L8.73 32.12L8.73 6.88Q8.73 5.99 9.61 5.99L9.61 5.99L23.35 5.99Q24.19 5.99 24.19 6.88L24.19 6.88L24.19 9.73Q24.19 10.61 23.35 10.61L23.35 10.61L14.57 10.61Q14.06 10.61 14.06 11.08L14.06 11.08L14.06 16.54Q14.06 17.00 14.57 17.00L14.57 17.00L21.75 17.00Q22.63 17.00 22.63 17.88L22.63 17.88L22.63 20.74Q22.63 21.62 21.75 21.62L21.75 21.62L14.57 21.62Q14.06 21.62 14.06 22.08L14.06 22.08L14.06 27.92Q14.06 28.38 14.57 28.38L14.57 28.38L23.35 28.38Q24.19 28.38 24.19 29.26L24.19 29.26L24.19 32.12Q24.19 33 23.35 33ZM30.53 33L30.53 33L26.29 33Q25.19 33 25.70 32.12L25.70 32.12L30.99 22.08L25.70 12.46Q25.28 11.58 26.20 11.58L26.20 11.58L30.49 11.58Q31.49 11.58 31.79 12.46L31.79 12.46L34.43 18.85L34.60 18.85L36.91 12.46Q37.21 11.58 38.21 11.58L38.21 11.58L42.41 11.58Q43.51 11.58 42.96 12.46L42.96 12.46L37.92 22.08L43.34 32.12Q43.55 32.50 43.40 32.75Q43.25 33 42.83 33L42.83 33L38.51 33Q37.63 33 37.25 32.12L37.25 32.12L34.60 25.69L34.43 25.69L31.79 32.12Q31.49 33 30.53 33ZM49.60 38.71L49.60 38.71L46.03 38.71Q45.14 38.71 45.14 37.87L45.14 37.87L45.14 12.46Q45.14 11.58 46.03 11.58L46.03 11.58L49.60 11.58Q50.48 11.58 50.48 12.46L50.48 12.46L50.48 13.85L50.65 13.85Q51.11 12.71 52.28 12.15Q53.46 11.58 54.76 11.58L54.76 11.58L56.48 11.58Q59.72 11.58 61.38 13.34Q63.04 15.11 63.04 18.43L63.04 18.43L63.04 26.15Q63.04 29.47 61.38 31.24Q59.72 33 56.48 33L56.48 33L54.76 33Q53.46 33 52.28 32.43Q51.11 31.87 50.65 30.73L50.65 30.73L50.48 30.73L50.48 37.87Q50.48 38.71 49.60 38.71ZM53.38 28.38L53.38 28.38L55.22 28.38Q56.57 28.38 57.13 27.81Q57.70 27.25 57.70 25.90L57.70 25.90L57.70 18.68Q57.70 17.33 57.13 16.77Q56.57 16.20 55.22 16.20L55.22 16.20L53.38 16.20Q50.48 16.20 50.48 19.39L50.48 19.39L50.48 25.19Q50.48 28.38 53.38 28.38ZM81.68 33L81.68 33L72.40 33Q69.08 33 67.28 31.24Q65.47 29.47 65.47 26.15L65.47 26.15L65.47 18.43Q65.47 15.11 67.28 13.34Q69.08 11.58 72.40 11.58L72.40 11.58L75.72 11.58Q79.04 11.58 80.84 13.34Q82.65 15.11 82.65 18.43L82.65 18.43L82.65 23.76Q82.65 24.64 81.77 24.64L81.77 24.64L71.23 24.64Q70.72 24.64 70.72 25.10L70.72 25.10L70.72 26.03Q70.72 27.33 71.29 27.90Q71.86 28.46 73.20 28.46L73.20 28.46L81.68 28.46Q82.57 28.46 82.57 29.39L82.57 29.39L82.57 32.16Q82.57 32.62 82.38 32.81Q82.19 33 81.68 33ZM71.23 21.07L71.23 21.07L76.94 21.07Q77.40 21.07 77.40 20.61L77.40 20.61L77.40 18.59Q77.40 17.25 76.85 16.70Q76.31 16.16 74.96 16.16L74.96 16.16L73.20 16.16Q71.86 16.16 71.31 16.70Q70.76 17.25 70.76 18.59L70.76 18.59L70.76 20.61Q70.76 21.07 71.23 21.07ZM89.75 33L89.75 33L86.18 33Q85.30 33 85.30 32.12L85.30 32.12L85.30 12.46Q85.30 11.58 86.18 11.58L86.18 11.58L89.75 11.58Q90.63 11.58 90.63 12.46L90.63 12.46L90.63 13.85L90.80 13.85Q91.72 11.58 94.91 11.58L94.91 11.58L96.26 11.58Q102.85 11.58 102.85 18.43L102.85 18.43L102.85 32.12Q102.85 33 101.93 33L101.93 33L98.40 33Q97.52 33 97.52 32.12L97.52 32.12L97.52 18.68Q97.52 17.33 96.95 16.77Q96.38 16.20 95.04 16.20L95.04 16.20L93.53 16.20Q90.63 16.20 90.63 19.39L90.63 19.39L90.63 32.12Q90.63 33 89.75 33ZM114.02 33L114.02 33L106.04 33Q105.20 33 105.20 32.12L105.20 32.12L105.20 29.43Q105.20 28.97 105.37 28.78Q105.54 28.59 106.04 28.59L106.04 28.59L113.06 28.59Q115.12 28.59 115.12 27.33L115.12 27.33L115.12 27.12Q115.12 26.11 113.39 25.19L113.39 25.19L109.24 22.88Q107.09 21.79 106.09 20.53Q105.08 19.27 105.08 17.29L105.08 17.29Q105.08 14.35 106.63 12.97Q108.19 11.58 111.50 11.58L111.50 11.58L118.52 11.58Q119.36 11.58 119.36 12.46L119.36 12.46L119.36 15.19Q119.36 15.65 119.19 15.84Q119.02 16.03 118.52 16.03L118.52 16.03L112.68 16.03Q110.62 16.03 110.62 17.08L110.62 17.08L110.62 17.29Q110.62 18.22 112.43 19.18L112.43 19.18L116.67 21.70Q118.85 22.88 119.74 24.12Q120.62 25.36 120.62 27.37L120.62 27.37Q120.62 33 114.02 33ZM138.76 33L138.76 33L129.48 33Q126.16 33 124.36 31.24Q122.55 29.47 122.55 26.15L122.55 26.15L122.55 18.43Q122.55 15.11 124.36 13.34Q126.16 11.58 129.48 11.58L129.48 11.58L132.80 11.58Q136.12 11.58 137.92 13.34Q139.73 15.11 139.73 18.43L139.73 18.43L139.73 23.76Q139.73 24.64 138.85 24.64L138.85 24.64L128.30 24.64Q127.80 24.64 127.80 25.10L127.80 25.10L127.80 26.03Q127.80 27.33 128.37 27.90Q128.93 28.46 130.28 28.46L130.28 28.46L138.76 28.46Q139.64 28.46 139.64 29.39L139.64 29.39L139.64 32.16Q139.64 32.62 139.46 32.81Q139.27 33 138.76 33ZM128.30 21.07L128.30 21.07L134.02 21.07Q134.48 21.07 134.48 20.61L134.48 20.61L134.48 18.59Q134.48 17.25 133.93 16.70Q133.39 16.16 132.04 16.16L132.04 16.16L130.28 16.16Q128.93 16.16 128.39 16.70Q127.84 17.25 127.84 18.59L127.84 18.59L127.84 20.61Q127.84 21.07 128.30 21.07ZM146.83 33L146.83 33L143.26 33Q142.37 33 142.37 32.12L142.37 32.12L142.37 12.46Q142.37 11.58 143.26 11.58L143.26 11.58L146.83 11.58Q147.71 11.58 147.71 12.46L147.71 12.46L147.71 13.89L147.88 13.89Q148.34 12.76 149.51 12.17Q150.69 11.58 151.99 11.58L151.99 11.58L153.50 11.58Q154.34 11.58 154.34 12.46L154.34 12.46L154.34 15.36Q154.34 15.86 154.16 16.05Q153.97 16.24 153.50 16.20L153.50 16.20L150.61 16.20Q147.71 16.20 147.71 19.48L147.71 19.48L147.71 32.12Q147.71 33 146.83 33Z"/></g>
        
      </svg>
    